<svg baseProfile="tiny" version="1.2" viewBox="0 0 20 20" width="20" height="20" xmlns="http://www.w3.org/2000/svg"><rect width="20" height="20" fill="#fff" /><path d="M2 2h1v1h-1zM2 3h1v1h-1zM2 4h1v1h-1zM2 5h1v1h-1zM2 6h1v1h-1zM2 7h1v1h-1zM2 8h1v1h-1zM2 9h1v1h-1zM2 10h1v1h-1zM2 11h1v1h-1zM2 12h1v1h-1zM2 13h1v1h-1zM2 14h1v1h-1zM2 15h1v1h-1zM2 16h1v1h-1zM2 17h1v1h-1zM3 4h1v1h-1zM3 8h1v1h-1zM3 10h1v1h-1zM3 12h1v1h-1zM3 13h1v1h-1zM3 15h1v1h-1zM3 16h1v1h-1zM3 17h1v1h-1zM4 2h1v1h-1zM4 3h1v1h-1zM4 4h1v1h-1zM4 7h1v1h-1zM4 8h1v1h-1zM4 11h1v1h-1zM4 15h1v1h-1zM4 16h1v1h-1zM4 17h1v1h-1zM5 4h1v1h-1zM5 5h1v1h-1zM5 6h1v1h-1zM5 10h1v1h-1zM5 13h1v1h-1zM5 14h1v1h-1zM5 15h1v1h-1zM5 17h1v1h-1zM6 2h1v1h-1zM6 3h1v1h-1zM6 5h1v1h-1zM6 7h1v1h-1zM6 8h1v1h-1zM6 9h1v1h-1zM6 11h1v1h-1zM6 13h1v1h-1zM6 17h1v1h-1zM7 4h1v1h-1zM7 5h1v1h-1zM7 8h1v1h-1zM7 9h1v1h-1zM7 12h1v1h-1zM7 13h1v1h-1zM7 14h1v1h-1zM7 16h1v1h-1zM7 17h1v1h-1zM8 2h1v1h-1zM8 3h1v1h-1zM8 4h1v1h-1zM8 6h1v1h-1zM8 7h1v1h-1zM8 8h1v1h-1zM8 12h1v1h-1zM8 13h1v1h-1zM8 14h1v1h-1zM8 15h1v1h-1zM8 17h1v1h-1zM9 4h1v1h-1zM9 6h1v1h-1zM9 9h1v1h-1zM9 11h1v1h-1zM9 12h1v1h-1zM9 15h1v1h-1zM9 17h1v1h-1zM10 2h1v1h-1zM10 3h1v1h-1zM10 5h1v1h-1zM10 7h1v1h-1zM10 10h1v1h-1zM10 12h1v1h-1zM10 14h1v1h-1zM10 17h1v1h-1zM11 5h1v1h-1zM11 8h1v1h-1zM11 10h1v1h-1zM11 11h1v1h-1zM11 16h1v1h-1zM11 17h1v1h-1zM12 2h1v1h-1zM12 6h1v1h-1zM12 9h1v1h-1zM12 11h1v1h-1zM12 12h1v1h-1zM12 13h1v1h-1zM12 14h1v1h-1zM12 15h1v1h-1zM12 17h1v1h-1zM13 5h1v1h-1zM13 14h1v1h-1zM13 16h1v1h-1zM13 17h1v1h-1zM14 2h1v1h-1zM14 6h1v1h-1zM14 8h1v1h-1zM14 11h1v1h-1zM14 14h1v1h-1zM14 15h1v1h-1zM14 16h1v1h-1zM14 17h1v1h-1zM15 5h1v1h-1zM15 6h1v1h-1zM15 8h1v1h-1zM15 9h1v1h-1zM15 10h1v1h-1zM15 11h1v1h-1zM15 14h1v1h-1zM15 15h1v1h-1zM15 17h1v1h-1zM16 2h1v1h-1zM16 6h1v1h-1zM16 7h1v1h-1zM16 9h1v1h-1zM16 11h1v1h-1zM16 12h1v1h-1zM16 13h1v1h-1zM16 16h1v1h-1zM16 17h1v1h-1zM17 3h1v1h-1zM17 5h1v1h-1zM17 7h1v1h-1zM17 9h1v1h-1zM17 11h1v1h-1zM17 13h1v1h-1zM17 15h1v1h-1zM17 17h1v1h-1z" /></svg>