<svg baseProfile="tiny" version="1.2" viewBox="0 0 12 5" width="12mm" height="5mm" style="background-color: white" xml:space="preserve"><g id="datamatrix" width="16" height="16" viewBox="0 0 16 16" transform="translate(7.0, 0) scale(0.3125)"><rect width="16" height="16" fill="#fff" /><path d="M2 2h1v1h-1zM2 3h1v1h-1zM2 4h1v1h-1zM2 5h1v1h-1zM2 6h1v1h-1zM2 7h1v1h-1zM2 8h1v1h-1zM2 9h1v1h-1zM2 10h1v1h-1zM2 11h1v1h-1zM2 12h1v1h-1zM2 13h1v1h-1zM3 3h1v1h-1zM3 4h1v1h-1zM3 5h1v1h-1zM3 8h1v1h-1zM3 10h1v1h-1zM3 11h1v1h-1zM3 12h1v1h-1zM3 13h1v1h-1zM4 2h1v1h-1zM4 6h1v1h-1zM4 7h1v1h-1zM4 8h1v1h-1zM4 10h1v1h-1zM4 12h1v1h-1zM4 13h1v1h-1zM5 7h1v1h-1zM5 9h1v1h-1zM5 11h1v1h-1zM5 12h1v1h-1zM5 13h1v1h-1zM6 2h1v1h-1zM6 3h1v1h-1zM6 5h1v1h-1zM6 9h1v1h-1zM6 10h1v1h-1zM6 11h1v1h-1zM6 12h1v1h-1zM6 13h1v1h-1zM7 5h1v1h-1zM7 6h1v1h-1zM7 8h1v1h-1zM7 12h1v1h-1zM7 13h1v1h-1zM8 2h1v1h-1zM8 5h1v1h-1zM8 8h1v1h-1zM8 10h1v1h-1zM8 11h1v1h-1zM8 12h1v1h-1zM8 13h1v1h-1zM9 3h1v1h-1zM9 5h1v1h-1zM9 6h1v1h-1zM9 8h1v1h-1zM9 10h1v1h-1zM9 12h1v1h-1zM9 13h1v1h-1zM10 2h1v1h-1zM10 5h1v1h-1zM10 7h1v1h-1zM10 8h1v1h-1zM10 13h1v1h-1zM11 3h1v1h-1zM11 5h1v1h-1zM11 7h1v1h-1zM11 10h1v1h-1zM11 11h1v1h-1zM11 13h1v1h-1zM12 2h1v1h-1zM12 6h1v1h-1zM12 7h1v1h-1zM12 9h1v1h-1zM12 10h1v1h-1zM12 12h1v1h-1zM12 13h1v1h-1zM13 3h1v1h-1zM13 5h1v1h-1zM13 7h1v1h-1zM13 9h1v1h-1zM13 11h1v1h-1zM13 13h1v1h-1z" /></g><circle id="pin_dot" cx="0.7" cy="2.5" r="0.25" /><g id="text" transform="translate(0 2.5) "><text id="text_line_0" x="7" y="-0.5004723799999999" font-family="Inconsolata" text-anchor="end" font-style="normal" font-weight="800" font-size="1.2523619">NHMD</text><text id="text_line_1" x="7" y="1.25188952" font-family="Inconsolata" text-anchor="end" font-style="normal" font-weight="800" font-size="1.2523619">23456789</text></g></svg>